<?xml version="1.0" encoding="UTF-8"?>
<svg width="80px" height="67px" viewBox="0 0 80 67" version="1.1" xmlns="http://www.w3.org/2000/svg" xmlns:xlink="http://www.w3.org/1999/xlink">
    <!-- Generator: Sketch 58 (84663) - https://sketch.com -->
    <title>Group 29</title>
    <desc>Created with Sketch.</desc>
    <defs>
        <polygon id="path-1" points="0 0.145650739 24.993519 0.145650739 24.993519 28.3384586 0 28.3384586"></polygon>
        <polygon id="path-3" points="0.204049793 0.199415764 28.4520166 0.199415764 28.4520166 39.9359606 0.204049793 39.9359606"></polygon>
        <polygon id="path-5" points="0.160763485 0.146607882 6.95502075 0.146607882 6.95502075 6.90205616 0.160763485 6.90205616"></polygon>
        <polygon id="path-7" points="0.231634855 0.268660099 1.22748548 0.268660099 1.22748548 3.80672217 0.231634855 3.80672217"></polygon>
    </defs>
    <g id="Desktop" stroke="none" stroke-width="1" fill="none" fill-rule="evenodd">
        <g id="About" transform="translate(-200.000000, -27.000000)">
            <g id="Group-29" transform="translate(200.000000, 27.000000)">
                <path d="M35.8738257,15.7409404 C34.9350705,16.5875167 34.3534938,17.7532507 34.2353195,19.014699 L31.625527,19.014699 C31.5073527,17.7598517 30.9201328,16.582566 29.9740747,15.7290586 L29.972083,15.7274084 C29.0934108,14.9422212 28.5745726,13.8639502 28.5115021,12.6906251 C28.4487635,11.51763 28.8490954,10.3901818 29.6391369,9.51654138 C30.4421245,8.62804877 31.5913361,8.09732956 32.7757344,8.06036404 L32.9304232,8.06036404 C35.3692614,8.06102414 37.3533278,10.0343887 37.3526641,12.4595906 C37.352332,13.7101473 36.8145726,14.9052557 35.8738257,15.7409404 M37.4914191,8.40757586 C36.3312531,7.1160931 34.672166,6.37744286 32.9304232,6.37744286 L32.7392199,6.37744286 C29.3629544,6.48206847 26.7110041,9.28847734 26.8165643,12.6454084 C26.8683485,14.3029158 27.598639,15.8673493 28.838805,16.9766448 C29.552166,17.620901 29.9574772,18.5361276 29.9531618,19.4945906 L29.9531618,19.9497286 L29.9548216,19.952699 L29.9548216,21.7636793 L29.9548216,22.1574281 C29.9548216,23.791502 31.2872697,25.1159897 32.9304232,25.1159897 C34.5739087,25.1159897 35.9063568,23.791502 35.9063568,22.1574281 L35.9063568,21.7643394 L35.9063568,19.497231 C35.8980581,18.545699 36.2973942,17.6354232 37.0044481,16.9941374 C39.5236183,14.7567335 39.7417095,10.9123197 37.4914191,8.40757586" id="Fill-1" fill="#FADE1E"></path>
                <g id="Group-5" transform="translate(0.000000, 26.795379)">
                    <mask id="mask-2" fill="white">
                        <use xlink:href="#path-1"></use>
                    </mask>
                    <g id="Clip-4"></g>
                    <path d="M16.3250456,14.5717739 L23.7842988,4.85611379 C24.2981577,4.19832562 24.5686971,3.50654236 24.5879502,2.79957685 C24.6065394,2.08403005 24.402722,1.460567 23.9814772,0.946350246 C23.5452946,0.414970936 22.8966639,0.145650739 22.0538423,0.145650739 C21.6438838,0.145650739 21.262805,0.21232069 20.9208963,0.344340394 C20.5633859,0.482961084 20.2271203,0.745680296 19.9150871,1.13315813 L12.7197344,10.6425374 L4.69284647,1.1216064 C4.15575104,0.473719704 3.42214108,0.145650739 2.51326141,0.145650739 C1.67176763,0.145650739 1.02446473,0.405069458 0.589278008,0.916645813 C0.162721992,1.41766059 -0.0341244813,2.02858177 0.00471369295,2.7329069 C0.041560166,3.42270985 0.30479668,4.0709266 0.791435685,4.66501527 L8.95674689,14.2767099 L1.28902905,23.8289956 C0.772182573,24.4894241 0.510273859,25.1670153 0.510273859,25.8436163 C0.510273859,26.5307788 0.73566805,27.1225571 1.17981743,27.6021187 C1.63060581,28.0905916 2.24969295,28.3384586 3.01915353,28.3384586 C3.82014938,28.3384586 4.51492116,28.0321729 5.10147718,27.4083798 L12.5099419,18.1432369 L20.2755851,27.4087099 C20.5842988,27.7935473 20.9255436,28.0493355 21.2906888,28.1701335 C21.6272863,28.2816901 21.9861245,28.3384586 22.3575768,28.3384586 C23.1174108,28.3384586 23.7481162,28.1041236 24.2327635,27.6423847 C24.7170788,27.1796557 24.9730124,26.6030596 24.9925975,25.928769 C25.0115187,25.2610793 24.7389876,24.5857985 24.1816432,23.9207493 L16.3250456,14.5717739 Z" id="Fill-3" fill="#9ECD3F" mask="url(#mask-2)"></path>
                </g>
                <g id="Group-8" transform="translate(40.497925, 26.795379)">
                    <mask id="mask-4" fill="white">
                        <use xlink:href="#path-3"></use>
                    </mask>
                    <g id="Clip-7"></g>
                    <path d="M22.8878672,14.3667803 C22.8878672,16.0615833 22.5057925,17.607864 21.7522656,18.9640365 C20.9994025,20.3178985 19.9680332,21.3998 18.6883651,22.1793764 C17.4120166,22.9563123 15.9371618,23.3510512 14.302971,23.3510512 C12.7016432,23.3510512 11.2344232,22.9559823 9.94114523,22.1783862 C8.64554357,21.3991399 7.61550207,20.3182286 6.88023237,18.9663468 C6.14230705,17.6114946 5.76819917,16.0642236 5.76819917,14.3667803 C5.76819917,12.6376522 6.14230705,11.0732187 6.88056432,9.7177064 C7.61550207,8.36648473 8.64554357,7.28590345 9.94114523,6.50632709 C11.2350871,5.72774089 12.702639,5.33333202 14.302971,5.33333202 C15.936166,5.33333202 17.4110207,5.72741084 18.6883651,6.5050069 C19.9680332,7.28524335 20.9994025,8.36714483 21.7522656,9.7203468 C22.5057925,11.0768493 22.8878672,12.6402926 22.8878672,14.3667803 M21.5305228,2.06188374 L21.5301909,2.06188374 C19.4179917,0.825849261 16.9867884,0.199415764 14.302971,0.199415764 C11.6516846,0.199415764 9.23741079,0.825849261 7.12620747,2.06188374 C5.016,3.29725813 3.32471369,5.00427291 2.10014938,7.13507094 C0.875585062,9.26520887 0.237908714,11.6970118 0.204049793,14.3667803 L0.204049793,37.0702089 C0.204049793,37.8867507 0.480896266,38.5758936 1.02662241,39.1181645 C1.57168465,39.6607655 2.26479668,39.9360266 3.08637344,39.9360266 C3.94214108,39.9360266 4.64454772,39.6594453 5.17566805,39.1138739 C5.70180913,38.571933 5.96836515,37.8841103 5.96836515,37.0702089 L5.96836515,24.4854305 C7.04355187,25.6099084 8.3039668,26.5314059 9.72604149,27.2311103 C11.4150041,28.0628345 13.2925145,28.4846374 15.3047967,28.4846374 C17.7934274,28.4846374 20.0593195,27.8565537 22.0390705,26.6172187 C24.0148382,25.3811842 25.5945892,23.6820906 26.735834,21.5661448 C27.8740913,19.4534995 28.4520166,17.031598 28.4520166,14.3667803 C28.4520166,11.6993222 27.8223071,9.26553892 26.5801494,7.13342069 C25.3383237,5.00328276 23.6394025,3.29692808 21.5305228,2.06188374" id="Fill-6" fill="#9ECD3F" mask="url(#mask-4)"></path>
                </g>
                <g id="Group-11" transform="translate(73.029046, 18.214099)">
                    <mask id="mask-6" fill="white">
                        <use xlink:href="#path-5"></use>
                    </mask>
                    <g id="Clip-10"></g>
                    <path d="M3.55794191,0.146607882 C2.63478838,0.146607882 1.82914523,0.48226798 1.16391701,1.1436867 C0.498024896,1.80543547 0.160763485,2.60646502 0.160763485,3.52433202 C0.160763485,4.44219901 0.498024896,5.24289852 1.16391701,5.90464729 C1.82881328,6.56639606 2.63445643,6.90205616 3.55794191,6.90205616 C4.48109544,6.90205616 5.28707054,6.56672611 5.95229876,5.90464729 C6.61785892,5.24289852 6.95512033,4.44186897 6.95512033,3.52433202 C6.95512033,2.60646502 6.61785892,1.80543547 5.95229876,1.1436867 C5.28673859,0.481937931 4.48109544,0.146607882 3.55794191,0.146607882" id="Fill-9" fill="#9ECD3F" mask="url(#mask-6)"></path>
                </g>
                <path d="M78.6937759,27.7416635 C78.1583402,27.2102842 77.4496266,26.940964 76.586888,26.940964 C75.7590041,26.940964 75.0605809,27.208964 74.5092116,27.738033 C73.9551867,28.2704025 73.6740249,28.9767079 73.6740249,29.8371463 L73.6740249,36.9830429 L73.6740249,42.7839887 L73.6740249,45.091033 L73.6740249,49.9302153 L73.6740249,52.2375897 C73.6740249,53.063703 73.9538589,53.7601069 74.5048963,54.3069985 C75.0559336,54.8555404 75.7560166,55.1337719 76.586888,55.1337719 C77.4529461,55.1337719 78.1629876,54.8542202 78.6980913,54.303368 C79.2302075,53.7558163 79.500083,53.0610626 79.500083,52.2375897 L79.500083,49.9302153 L79.500083,45.091033 L79.500083,42.7839887 L79.500083,36.9830429 L79.500083,29.8371463 C79.500083,28.9793483 79.2288797,28.2743631 78.6937759,27.7416635" id="Fill-12" fill="#9ECD3F"></path>
                <path d="M35.0358174,27.7416635 C34.5003817,27.2102842 33.791668,26.940964 32.9289295,26.940964 C32.1013776,26.940964 31.4026224,27.208964 30.8512531,27.738033 C30.2972282,28.2704025 30.0163983,28.9767079 30.0163983,29.8371463 L30.0163983,36.9830429 L30.0163983,42.7839887 L30.0163983,45.091033 L30.0163983,49.9302153 L30.0163983,52.2375897 C30.0163983,53.063703 30.2959004,53.7601069 30.8469378,54.3069985 C31.3979751,54.8555404 32.09839,55.1337719 32.9289295,55.1337719 C33.7949876,55.1337719 34.505029,54.8542202 35.0401328,54.303368 C35.572249,53.7558163 35.8421245,53.0610626 35.8421245,52.2375897 L35.8421245,49.9302153 L35.8421245,45.091033 L35.8421245,42.7839887 L35.8421245,36.9830429 L35.8421245,29.8371463 C35.8421245,28.9793483 35.5709212,28.2743631 35.0358174,27.7416635" id="Fill-14" fill="#9ECD3F"></path>
                <path d="M32.9640498,9.22553695 C32.4067054,9.2479803 31.8633029,9.40310345 31.3789876,9.67836453 C30.6543402,10.0922463 29.7846307,10.9738079 29.7530954,12.8065714 L29.7530954,12.8069015 C29.749112,13.0283645 29.9267054,13.2115419 30.149444,13.2151729 C30.369527,13.2155025 30.549112,13.0402463 30.5530954,12.8214236 C30.5733444,11.6721921 30.9753361,10.8457488 31.7474523,10.3892906 C32.1155851,10.1737685 32.5298589,10.0480197 32.9567469,10.022936 L32.9640498,10.0282167 C33.1871203,10.0282167 33.3677012,9.84866995 33.3677012,9.62687685 C33.3677012,9.40508374 33.1871203,9.22553695 32.9640498,9.22553695" id="Fill-16" fill="#FADE1E"></path>
                <path d="M23.9586058,11.8710798 L21.3962822,11.8710798 C21.1217593,11.8710798 20.8983568,12.093203 20.8983568,12.3661537 C20.8983568,12.6391044 21.1217593,12.8612276 21.3962822,12.8612276 L23.9586058,12.8612276 C24.2331286,12.8612276 24.4565311,12.6391044 24.4565311,12.3661537 C24.4565311,12.093203 24.2331286,11.8710798 23.9586058,11.8710798" id="Fill-18" fill="#FADE1E"></path>
                <path d="M44.5362988,11.7962906 L41.9739751,11.7962906 C41.6994523,11.7962906 41.4760498,12.0184138 41.4760498,12.2913645 C41.4760498,12.5643153 41.6994523,12.7864384 41.9739751,12.7864384 L44.5362988,12.7864384 C44.8108216,12.7864384 45.0342241,12.5643153 45.0342241,12.2913645 C45.0342241,12.0184138 44.8108216,11.7962906 44.5362988,11.7962906" id="Fill-20" fill="#FADE1E"></path>
                <path d="M41.473195,3.81807586 C41.2793361,3.62532709 40.9629876,3.62532709 40.7691286,3.81807586 L38.9570124,5.61948473 C38.7628216,5.81256355 38.7628216,6.12644039 38.9570124,6.31951921 C39.0509544,6.41292315 39.1760996,6.46474089 39.3088797,6.46474089 C39.4419917,6.46474089 39.5671369,6.41292315 39.6610788,6.31951921 L41.473195,4.51811034 C41.6673859,4.32503153 41.6673859,4.01115468 41.473195,3.81807586" id="Fill-22" fill="#FADE1E"></path>
                <g id="Group-26" transform="translate(32.199170, 0.061389)">
                    <mask id="mask-8" fill="white">
                        <use xlink:href="#path-7"></use>
                    </mask>
                    <g id="Clip-25"></g>
                    <path d="M0.729560166,0.268594089 C0.455037344,0.268594089 0.231634855,0.490717241 0.231634855,0.76366798 L0.231634855,3.31164828 C0.231634855,3.58459901 0.455037344,3.80672217 0.729560166,3.80672217 C1.00408299,3.80672217 1.22748548,3.58459901 1.22748548,3.31164828 L1.22748548,0.76366798 C1.22748548,0.490717241 1.00408299,0.268594089 0.729560166,0.268594089" id="Fill-24" fill="#FADE1E" mask="url(#mask-8)"></path>
                </g>
                <path d="M25.1107054,3.87091675 C24.9168465,3.67816798 24.6004979,3.67816798 24.406639,3.87091675 C24.2124481,4.06399557 24.2124481,4.37787241 24.406639,4.57095123 L26.2184232,6.3723601 C26.3123651,6.46576404 26.4375104,6.51758177 26.5702905,6.51758177 C26.7034025,6.51758177 26.8285477,6.46576404 26.9224896,6.3723601 C27.1166805,6.17928128 27.1166805,5.86540443 26.9224896,5.67232562 L25.1107054,3.87091675 Z" id="Fill-27" fill="#FADE1E"></path>
            </g>
        </g>
    </g>
</svg>